<svg xmlns="http://www.w3.org/2000/svg" xmlns:xlink="http://www.w3.org/1999/xlink" viewBox="0 0 868 868">
  <defs>
    <style>
      .cls-1 {
        fill: none;
      }

      .cls-2, .cls-48 {
        fill: #fff;
      }

      .cls-2 {
        stroke: rgba(26,25,23,0.84);
        stroke-linecap: round;
        stroke-linejoin: bevel;
        stroke-width: 25px;
      }

      .cls-16, .cls-3 {
        fill: #ee3b14;
      }

      .cls-4 {
        fill: #f05611;
      }

      .cls-5 {
        fill: #fa8308;
      }

      .cls-6 {
        fill: #eeb40b;
      }

      .cls-7 {
        fill: #f50d4b;
      }

      .cls-17, .cls-8 {
        fill: #ed241a;
      }

      .cls-15, .cls-9 {
        fill: #f4aa0a;
      }

      .cls-10 {
        clip-path: url(#clip-path);
      }

      .cls-11, .cls-23 {
        fill: #cfc80e;
      }

      .cls-12, .cls-36 {
        fill: #0067b2;
      }

      .cls-13, .cls-46 {
        fill: #48ad27;
      }

      .cls-14, .cls-26 {
        fill: #bf1742;
      }

      .cls-18, .cls-45 {
        fill: #fb9604;
      }

      .cls-19, .cls-22 {
        fill: #e9ce09;
      }

      .cls-20, .cls-24 {
        fill: #e1093a;
      }

      .cls-21, .cls-25 {
        fill: #d00054;
      }

      .cls-27 {
        fill: #a45e38;
      }

      .cls-28 {
        fill: #3b6652;
      }

      .cls-29 {
        fill: #522733;
      }

      .cls-30, .cls-38 {
        fill: #24a271;
      }

      .cls-31, .cls-41 {
        fill: #4f2165;
      }

      .cls-32, .cls-42 {
        fill: #4f1e86;
      }

      .cls-33, .cls-39 {
        fill: #0778a1;
      }

      .cls-34, .cls-43 {
        fill: #1e3d96;
      }

      .cls-35, .cls-44 {
        fill: #123492;
      }

      .cls-37, .cls-40 {
        fill: #0073bd;
      }

      .cls-47 {
        fill: rgba(13,13,12,0.83);
      }

      .cls-49 {
        stroke: none;
      }

      .cls-50 {
        filter: url(#Rectangle_256);
      }
    </style>
    <filter id="Rectangle_256" x="0" y="0" width="868" height="868" filterUnits="userSpaceOnUse">
      <feOffset dy="3" input="SourceAlpha"/>
      <feGaussianBlur stdDeviation="3" result="blur"/>
      <feFlood flood-opacity="0.745"/>
      <feComposite operator="in" in2="blur"/>
      <feComposite in="SourceGraphic"/>
    </filter>
    <clipPath id="clip-path">
      <rect class="cls-1" width="56.569" height="30.569"/>
    </clipPath>
  </defs>
  <g id="Groupe_1" data-name="Groupe 1" transform="translate(782 504)">
    <g class="cls-50" transform="matrix(1, 0, 0, 1, -782, -504)">
      <g id="Rectangle_256-2" data-name="Rectangle 256" class="cls-2" transform="translate(9 6)">
        <rect class="cls-49" width="850" height="850" rx="261"/>
        <rect class="cls-1" x="12.5" y="12.5" width="825" height="825" rx="248.5"/>
      </g>
    </g>
    <rect id="Rectangle_134" data-name="Rectangle 134" class="cls-3" width="40" height="40" transform="translate(-224 -201.284) rotate(45)"/>
    <rect id="Rectangle_135" data-name="Rectangle 135" class="cls-3" width="40" height="40" transform="translate(-252 -173.284) rotate(45)"/>
    <rect id="Rectangle_136" data-name="Rectangle 136" class="cls-4" width="40" height="40" transform="translate(-281 -201.284) rotate(45)"/>
    <rect id="Rectangle_137" data-name="Rectangle 137" class="cls-4" width="40" height="40" transform="translate(-308 -173.284) rotate(45)"/>
    <rect id="Rectangle_138" data-name="Rectangle 138" class="cls-5" width="40" height="40" transform="translate(-336 -201.284) rotate(45)"/>
    <rect id="Rectangle_139" data-name="Rectangle 139" class="cls-5" width="40" height="40" transform="translate(-364 -173.284) rotate(45)"/>
    <rect id="Rectangle_140" data-name="Rectangle 140" class="cls-6" width="40" height="40" transform="translate(-392 -201.284) rotate(45)"/>
    <rect id="Rectangle_141" data-name="Rectangle 141" class="cls-7" width="40" height="40" transform="translate(-196 -173.284) rotate(45)"/>
    <rect id="Rectangle_142" data-name="Rectangle 142" class="cls-8" width="40" height="40" transform="translate(-168 -201.284) rotate(45)"/>
    <rect id="Rectangle_143" data-name="Rectangle 143" class="cls-6" width="40" height="40" transform="translate(-420 -173.284) rotate(45)"/>
    <rect id="Rectangle_144" data-name="Rectangle 144" class="cls-3" width="40" height="40" transform="translate(-224 -145.284) rotate(45)"/>
    <rect id="Rectangle_145" data-name="Rectangle 145" class="cls-4" width="40" height="40" transform="translate(-280 -145.284) rotate(45)"/>
    <rect id="Rectangle_146" data-name="Rectangle 146" class="cls-5" width="40" height="40" transform="translate(-336 -145.284) rotate(45)"/>
    <rect id="Rectangle_147" data-name="Rectangle 147" class="cls-9" width="40" height="40" transform="translate(-392 -145.284) rotate(45)"/>
    <rect id="Rectangle_148" data-name="Rectangle 148" class="cls-7" width="40" height="40" transform="translate(-140 -173.284) rotate(45)"/>
    <rect id="Rectangle_149" data-name="Rectangle 149" class="cls-7" width="40" height="40" transform="translate(-168 -145.284) rotate(45)"/>
    <g id="Grille_de_répétition_1" data-name="Grille de répétition 1" class="cls-10" transform="translate(-393.284 -119.284)">
      <g transform="translate(287.284 -117.716)">
        <rect id="Rectangle_150" data-name="Rectangle 150" class="cls-11" width="40" height="40" transform="translate(-259 117.716) rotate(45)"/>
      </g>
    </g>
    <g id="Grille_de_répétition_2" data-name="Grille de répétition 2" class="cls-10" transform="translate(-304.284 241.716)">
      <g transform="translate(287.284 -117.716)">
        <rect id="Rectangle_150-2" data-name="Rectangle 150" class="cls-12" width="40" height="40" transform="translate(-259 117.716) rotate(45)"/>
      </g>
    </g>
    <g id="Grille_de_répétition_3" data-name="Grille de répétition 3" class="cls-10" transform="translate(-305.716 -90.284) rotate(90)">
      <g transform="translate(287.284 -117.716)">
        <rect id="Rectangle_150-3" data-name="Rectangle 150" class="cls-13" width="40" height="40" transform="translate(-259 117.716) rotate(45)"/>
      </g>
    </g>
    <g id="Grille_de_répétition_4" data-name="Grille de répétition 4" class="cls-10" transform="translate(-225.284 -119.284)">
      <g transform="translate(287.284 -117.716)">
        <rect id="Rectangle_150-4" data-name="Rectangle 150" class="cls-14" width="40" height="40" transform="translate(-259 117.716) rotate(45)"/>
      </g>
    </g>
    <g id="Grille_de_répétition_5" data-name="Grille de répétition 5" class="cls-10" transform="translate(-167.284 -119.284)">
      <g transform="translate(287.284 -117.716)">
        <rect id="Rectangle_150-5" data-name="Rectangle 150" class="cls-14" width="40" height="40" transform="translate(-259 117.716) rotate(45)"/>
      </g>
    </g>
    <g id="Grille_de_répétition_6" data-name="Grille de répétition 6" class="cls-10" transform="translate(-450.284 -119.284)">
      <g transform="translate(287.284 -117.716)">
        <rect id="Rectangle_150-6" data-name="Rectangle 150" class="cls-15" width="40" height="40" transform="translate(-259 117.716) rotate(45)"/>
      </g>
    </g>
    <g id="Grille_de_répétition_7" data-name="Grille de répétition 7" class="cls-10" transform="translate(-221.716 -170.716) rotate(180)">
      <g transform="translate(287.284 -117.716)">
        <rect id="Rectangle_150-7" data-name="Rectangle 150" class="cls-16" width="40" height="40" transform="translate(-259 117.716) rotate(45)"/>
      </g>
    </g>
    <g id="Grille_de_répétition_8" data-name="Grille de répétition 8" class="cls-10" transform="translate(-164.716 -170.716) rotate(180)">
      <g transform="translate(287.284 -117.716)">
        <rect id="Rectangle_150-8" data-name="Rectangle 150" class="cls-17" width="40" height="40" transform="translate(-259 117.716) rotate(45)"/>
      </g>
    </g>
    <g id="Grille_de_répétition_9" data-name="Grille de répétition 9" class="cls-10" transform="translate(-279.716 -170.716) rotate(180)">
      <g transform="translate(287.284 -117.716)">
        <rect id="Rectangle_150-9" data-name="Rectangle 150" class="cls-18" width="40" height="40" transform="translate(-259 117.716) rotate(45)"/>
      </g>
    </g>
    <g id="Grille_de_répétition_10" data-name="Grille de répétition 10" class="cls-10" transform="translate(-334.716 -170.716) rotate(180)">
      <g transform="translate(287.284 -117.716)">
        <rect id="Rectangle_150-10" data-name="Rectangle 150" class="cls-18" width="40" height="40" transform="translate(-259 117.716) rotate(45)"/>
      </g>
    </g>
    <g id="Grille_de_répétition_11" data-name="Grille de répétition 11" class="cls-10" transform="translate(-110.716 -170.716) rotate(180)">
      <g transform="translate(287.284 -117.716)">
        <rect id="Rectangle_150-11" data-name="Rectangle 150" class="cls-17" width="40" height="40" transform="translate(-259 117.716) rotate(45)"/>
      </g>
    </g>
    <g id="Grille_de_répétition_12" data-name="Grille de répétition 12" class="cls-10" transform="translate(-391.716 -170.716) rotate(180)">
      <g transform="translate(287.284 -117.716)">
        <rect id="Rectangle_150-12" data-name="Rectangle 150" class="cls-19" width="40" height="40" transform="translate(-259 117.716) rotate(45)"/>
      </g>
    </g>
    <rect id="Rectangle_151" data-name="Rectangle 151" class="cls-20" width="40" height="40" transform="translate(-110 -199.284) rotate(45)"/>
    <rect id="Rectangle_152" data-name="Rectangle 152" class="cls-21" width="40" height="40" transform="translate(-111 -145.284) rotate(45)"/>
    <rect id="Rectangle_153" data-name="Rectangle 153" class="cls-21" width="40" height="40" transform="translate(-82 -173.284) rotate(45)"/>
    <rect id="Rectangle_154" data-name="Rectangle 154" class="cls-20" width="40" height="40" transform="translate(-54 -201.284) rotate(45)"/>
    <rect id="Rectangle_155" data-name="Rectangle 155" class="cls-21" width="40" height="40" transform="translate(-54 -146.284) rotate(45)"/>
    <rect id="Rectangle_156" data-name="Rectangle 156" class="cls-6" width="40" height="40" transform="translate(-448 -202.284) rotate(45)"/>
    <rect id="Rectangle_157" data-name="Rectangle 157" class="cls-9" width="40" height="40" transform="translate(-448 -145.284) rotate(45)"/>
    <rect id="Rectangle_158" data-name="Rectangle 158" class="cls-22" width="40" height="40" transform="translate(-476 -174.284) rotate(45)"/>
    <rect id="Rectangle_159" data-name="Rectangle 159" class="cls-23" width="40" height="40" transform="translate(-504 -147.284) rotate(45)"/>
    <rect id="Rectangle_160" data-name="Rectangle 160" class="cls-22" width="40" height="40" transform="translate(-504 -201.284) rotate(45)"/>
    <g id="Grille_de_répétition_13" data-name="Grille de répétition 13" class="cls-10" transform="translate(-447.716 -170.716) rotate(180)">
      <g transform="translate(287.284 -117.716)">
        <rect id="Rectangle_150-13" data-name="Rectangle 150" class="cls-19" width="40" height="40" transform="translate(-259 117.716) rotate(45)"/>
      </g>
    </g>
    <g id="Grille_de_répétition_14" data-name="Grille de répétition 14" class="cls-10" transform="translate(-53.716 -170.716) rotate(180)">
      <g transform="translate(287.284 -117.716)">
        <rect id="Rectangle_150-14" data-name="Rectangle 150" class="cls-24" width="40" height="40" transform="translate(-259 117.716) rotate(45)"/>
      </g>
    </g>
    <g id="Grille_de_répétition_15" data-name="Grille de répétition 15" class="cls-10" transform="translate(-505.284 -119.284)">
      <g transform="translate(287.284 -117.716)">
        <rect id="Rectangle_150-15" data-name="Rectangle 150" class="cls-11" width="40" height="40" transform="translate(-259 117.716) rotate(45)"/>
      </g>
    </g>
    <g id="Grille_de_répétition_16" data-name="Grille de répétition 16" class="cls-10" transform="translate(-111.284 -119.284)">
      <g transform="translate(287.284 -117.716)">
        <rect id="Rectangle_150-16" data-name="Rectangle 150" class="cls-25" width="40" height="40" transform="translate(-259 117.716) rotate(45)"/>
      </g>
    </g>
    <g id="Grille_de_répétition_17" data-name="Grille de répétition 17" class="cls-10" transform="translate(-56.284 -116.716) rotate(-90)">
      <g transform="translate(287.284 -117.716)">
        <rect id="Rectangle_150-17" data-name="Rectangle 150" class="cls-25" width="40" height="40" transform="translate(-259 117.716) rotate(45)"/>
      </g>
    </g>
    <g id="Grille_de_répétition_18" data-name="Grille de répétition 18" class="cls-10" transform="translate(-501.716 -174.284) rotate(90)">
      <g transform="translate(287.284 -117.716)">
        <rect id="Rectangle_150-18" data-name="Rectangle 150" class="cls-19" width="40" height="40" transform="translate(-259 117.716) rotate(45)"/>
      </g>
    </g>
    <rect id="Rectangle_161" data-name="Rectangle 161" class="cls-3" width="40" height="40" transform="translate(-307 -118.284) rotate(45)"/>
    <rect id="Rectangle_162" data-name="Rectangle 162" class="cls-3" width="40" height="40" transform="translate(-251 -118.284) rotate(45)"/>
    <rect id="Rectangle_163" data-name="Rectangle 163" class="cls-26" width="40" height="40" transform="translate(-250 -62.284) rotate(45)"/>
    <rect id="Rectangle_164" data-name="Rectangle 164" class="cls-27" width="40" height="40" transform="translate(-278 -90.284) rotate(45)"/>
    <rect id="Rectangle_165" data-name="Rectangle 165" class="cls-28" width="40" height="40" transform="translate(-305 -63.284) rotate(45)"/>
    <rect id="Rectangle_166" data-name="Rectangle 166" class="cls-29" width="40" height="40" transform="translate(-278 -33.284) rotate(45)"/>
    <rect id="Rectangle_167" data-name="Rectangle 167" class="cls-30" width="40" height="40" transform="translate(-304 -6.284) rotate(45)"/>
    <rect id="Rectangle_168" data-name="Rectangle 168" class="cls-31" width="40" height="40" transform="translate(-249 -6.284) rotate(45)"/>
    <rect id="Rectangle_169" data-name="Rectangle 169" class="cls-32" width="40" height="40" transform="translate(-249 48.716) rotate(45)"/>
    <rect id="Rectangle_170" data-name="Rectangle 170" class="cls-31" width="40" height="40" transform="translate(-277 21.716) rotate(45)"/>
    <rect id="Rectangle_171" data-name="Rectangle 171" class="cls-33" width="40" height="40" transform="translate(-305 49.716) rotate(45)"/>
    <rect id="Rectangle_172" data-name="Rectangle 172" class="cls-34" width="40" height="40" transform="translate(-275 75.716) rotate(45)"/>
    <rect id="Rectangle_173" data-name="Rectangle 173" class="cls-33" width="40" height="40" transform="translate(-303 104.716) rotate(45)"/>
    <rect id="Rectangle_174" data-name="Rectangle 174" class="cls-34" width="40" height="40" transform="translate(-247 104.716) rotate(45)"/>
    <rect id="Rectangle_175" data-name="Rectangle 175" class="cls-35" width="40" height="40" transform="translate(-247 160.716) rotate(45)"/>
    <rect id="Rectangle_176" data-name="Rectangle 176" class="cls-36" width="40" height="40" transform="translate(-275 132.716) rotate(45)"/>
    <rect id="Rectangle_177" data-name="Rectangle 177" class="cls-33" width="40" height="40" transform="translate(-303 160.716) rotate(45)"/>
    <rect id="Rectangle_178" data-name="Rectangle 178" class="cls-36" width="40" height="40" transform="translate(-275 188.716) rotate(45)"/>
    <rect id="Rectangle_179" data-name="Rectangle 179" class="cls-37" width="40" height="40" transform="translate(-305 215.716) rotate(45)"/>
    <rect id="Rectangle_180" data-name="Rectangle 180" class="cls-35" width="40" height="40" transform="translate(-245 215.716) rotate(45)"/>
    <g id="Grille_de_répétition_19" data-name="Grille de répétition 19" class="cls-10" transform="translate(-304.716 -34.284) rotate(90)">
      <g transform="translate(287.284 -117.716)">
        <rect id="Rectangle_150-19" data-name="Rectangle 150" class="cls-13" width="40" height="40" transform="translate(-259 117.716) rotate(45)"/>
      </g>
    </g>
    <g id="Grille_de_répétition_20" data-name="Grille de répétition 20" class="cls-10" transform="translate(-304.716 20.716) rotate(90)">
      <g transform="translate(287.284 -117.716)">
        <rect id="Rectangle_150-20" data-name="Rectangle 150" class="cls-38" width="40" height="40" transform="translate(-259 117.716) rotate(45)"/>
      </g>
    </g>
    <g id="Grille_de_répétition_21" data-name="Grille de répétition 21" class="cls-10" transform="translate(-303.716 77.716) rotate(90)">
      <g transform="translate(287.284 -117.716)">
        <rect id="Rectangle_150-21" data-name="Rectangle 150" class="cls-39" width="40" height="40" transform="translate(-259 117.716) rotate(45)"/>
      </g>
    </g>
    <g id="Grille_de_répétition_22" data-name="Grille de répétition 22" class="cls-10" transform="translate(-303.716 132.716) rotate(90)">
      <g transform="translate(287.284 -117.716)">
        <rect id="Rectangle_150-22" data-name="Rectangle 150" class="cls-40" width="40" height="40" transform="translate(-259 117.716) rotate(45)"/>
      </g>
    </g>
    <g id="Grille_de_répétition_23" data-name="Grille de répétition 23" class="cls-10" transform="translate(-303.716 188.716) rotate(90)">
      <g transform="translate(287.284 -117.716)">
        <rect id="Rectangle_150-23" data-name="Rectangle 150" class="cls-40" width="40" height="40" transform="translate(-259 117.716) rotate(45)"/>
      </g>
    </g>
    <g id="Grille_de_répétition_24" data-name="Grille de répétition 24" class="cls-10" transform="translate(-250.284 -33.716) rotate(-90)">
      <g transform="translate(287.284 -117.716)">
        <rect id="Rectangle_150-24" data-name="Rectangle 150" class="cls-14" width="40" height="40" transform="translate(-259 117.716) rotate(45)"/>
      </g>
    </g>
    <g id="Grille_de_répétition_25" data-name="Grille de répétition 25" class="cls-10" transform="translate(-249.284 22.284) rotate(-90)">
      <g transform="translate(287.284 -117.716)">
        <rect id="Rectangle_150-25" data-name="Rectangle 150" class="cls-41" width="40" height="40" transform="translate(-259 117.716) rotate(45)"/>
      </g>
    </g>
    <g id="Grille_de_répétition_26" data-name="Grille de répétition 26" class="cls-10" transform="translate(-249.284 77.284) rotate(-90)">
      <g transform="translate(287.284 -117.716)">
        <rect id="Rectangle_150-26" data-name="Rectangle 150" class="cls-42" width="40" height="40" transform="translate(-259 117.716) rotate(45)"/>
      </g>
    </g>
    <g id="Grille_de_répétition_27" data-name="Grille de répétition 27" class="cls-10" transform="translate(-248.284 132.284) rotate(-90)">
      <g transform="translate(287.284 -117.716)">
        <rect id="Rectangle_150-27" data-name="Rectangle 150" class="cls-43" width="40" height="40" transform="translate(-259 117.716) rotate(45)"/>
      </g>
    </g>
    <g id="Grille_de_répétition_28" data-name="Grille de répétition 28" class="cls-10" transform="translate(-247.284 189.284) rotate(-90)">
      <g transform="translate(287.284 -117.716)">
        <rect id="Rectangle_150-28" data-name="Rectangle 150" class="cls-43" width="40" height="40" transform="translate(-259 117.716) rotate(45)"/>
      </g>
    </g>
    <g id="Grille_de_répétition_29" data-name="Grille de répétition 29" class="cls-10" transform="translate(-247.284 244.284) rotate(-90)">
      <g transform="translate(287.284 -117.716)">
        <rect id="Rectangle_150-29" data-name="Rectangle 150" class="cls-44" width="40" height="40" transform="translate(-259 117.716) rotate(45)"/>
      </g>
    </g>
    <rect id="Rectangle_181" data-name="Rectangle 181" class="cls-23" width="20" height="20" transform="translate(-671.5 -336.107)"/>
    <rect id="Rectangle_182" data-name="Rectangle 182" class="cls-5" width="20" height="20" transform="translate(-489.5 -337.107)"/>
    <rect id="Rectangle_183" data-name="Rectangle 183" class="cls-45" width="20" height="20" transform="translate(-442.5 -270.107)"/>
    <rect id="Rectangle_184" data-name="Rectangle 184" class="cls-22" width="20" height="20" transform="translate(-495.5 -254.107)"/>
    <rect id="Rectangle_185" data-name="Rectangle 185" class="cls-22" width="20" height="20" transform="translate(-560.5 -262.107)"/>
    <rect id="Rectangle_186" data-name="Rectangle 186" class="cls-6" width="20" height="20" transform="translate(-536.5 -305.107)"/>
    <rect id="Rectangle_187" data-name="Rectangle 187" class="cls-4" width="20" height="20" transform="translate(-535.5 -340.107)"/>
    <rect id="Rectangle_188" data-name="Rectangle 188" class="cls-23" width="20" height="20" transform="translate(-676.5 -261.107)"/>
    <rect id="Rectangle_189" data-name="Rectangle 189" class="cls-6" width="20" height="20" transform="translate(-488.5 -289.107)"/>
    <rect id="Rectangle_190" data-name="Rectangle 190" class="cls-30" width="20" height="20" transform="translate(-366.5 -56.107)"/>
    <rect id="Rectangle_191" data-name="Rectangle 191" class="cls-46" width="20" height="20" transform="translate(-424.5 -63.107)"/>
    <rect id="Rectangle_192" data-name="Rectangle 192" class="cls-33" width="20" height="20" transform="translate(-471.5 -55.107)"/>
    <rect id="Rectangle_194" data-name="Rectangle 194" class="cls-31" width="20" height="20" transform="translate(-421.5 -13.107)"/>
    <rect id="Rectangle_195" data-name="Rectangle 195" class="cls-30" width="20" height="20" transform="translate(-536.5 -78.107)"/>
    <rect id="Rectangle_196" data-name="Rectangle 196" class="cls-22" width="20" height="20" transform="translate(-570.5 -204.107)"/>
    <rect id="Rectangle_197" data-name="Rectangle 197" class="cls-22" width="20" height="20" transform="translate(-577.5 -271.107)"/>
    <rect id="Rectangle_198" data-name="Rectangle 198" class="cls-22" width="20" height="20" transform="translate(-595.5 -324.107)"/>
    <rect id="Rectangle_199" data-name="Rectangle 199" class="cls-47" width="20" height="20" transform="translate(-699 -374.284) rotate(45)"/>
    <rect id="Rectangle_201" data-name="Rectangle 201" class="cls-37" width="20" height="20" transform="translate(-394.5 107.893)"/>
    <rect id="Rectangle_202" data-name="Rectangle 202" class="cls-45" width="20" height="20" transform="translate(-609.5 -374.107)"/>
    <rect id="Rectangle_203" data-name="Rectangle 203" class="cls-9" width="20" height="20" transform="translate(-623.5 -274.107)"/>
    <rect id="Rectangle_204" data-name="Rectangle 204" class="cls-22" width="20" height="20" transform="translate(-630.5 -214.107)"/>
    <rect id="Rectangle_205" data-name="Rectangle 205" class="cls-23" width="20" height="20" transform="translate(-576 -134.284) rotate(45)"/>
    <rect id="Rectangle_206" data-name="Rectangle 206" class="cls-5" width="20" height="20" transform="translate(-377.5 -249.107)"/>
    <rect id="Rectangle_207" data-name="Rectangle 207" class="cls-34" width="20" height="20" transform="translate(-386.5 39.893)"/>
    <rect id="Rectangle_208" data-name="Rectangle 208" class="cls-37" width="20" height="20" transform="translate(-363 174.716) rotate(45)"/>
    <rect id="Rectangle_209" data-name="Rectangle 209" class="cls-33" width="20" height="20" transform="translate(-437.5 31.893)"/>
    <rect id="Rectangle_210" data-name="Rectangle 210" class="cls-7" width="20" height="20" transform="translate(-308 -314.284) rotate(45)"/>
    <rect id="Rectangle_211" data-name="Rectangle 211" class="cls-4" width="20" height="20" transform="translate(-355 -355.284) rotate(45)"/>
    <rect id="Rectangle_212" data-name="Rectangle 212" class="cls-22" width="20" height="20" transform="translate(-713.5 -304.107)"/>
    <rect id="Rectangle_213" data-name="Rectangle 213" class="cls-48" width="20" height="20" transform="translate(-421.5 -141.107)"/>
    <rect id="Rectangle_214" data-name="Rectangle 214" class="cls-48" width="20" height="20" transform="translate(-471.5 -206.107)"/>
    <rect id="Rectangle_215" data-name="Rectangle 215" class="cls-48" width="20" height="20" transform="translate(-510.5 -183.107)"/>
    <rect id="Rectangle_216" data-name="Rectangle 216" class="cls-48" width="20" height="20" transform="translate(-492.5 -131.107)"/>
    <rect id="Rectangle_217" data-name="Rectangle 217" class="cls-48" width="25" height="25" transform="translate(-544.5 -146.107)"/>
    <rect id="Rectangle_218" data-name="Rectangle 218" class="cls-48" width="20" height="20" transform="translate(-519.5 -211.107)"/>
    <rect id="Rectangle_219" data-name="Rectangle 219" class="cls-48" width="20" height="20" transform="translate(-435.5 -108.107)"/>
    <rect id="Rectangle_220" data-name="Rectangle 220" class="cls-48" width="20" height="20" transform="translate(-405.5 -128.107)"/>
    <rect id="Rectangle_221" data-name="Rectangle 221" class="cls-48" width="20" height="20" transform="translate(-329.5 -17.107)"/>
    <rect id="Rectangle_222" data-name="Rectangle 222" class="cls-48" width="20" height="20" transform="translate(-319.5 -73.107)"/>
    <rect id="Rectangle_223" data-name="Rectangle 223" class="cls-48" width="20" height="20" transform="translate(-484.5 -99.107)"/>
    <rect id="Rectangle_224" data-name="Rectangle 224" class="cls-48" width="20" height="20" transform="translate(-519.5 -103.107)"/>
    <rect id="Rectangle_225" data-name="Rectangle 225" class="cls-48" width="20" height="20" transform="translate(-443.5 -159.107)"/>
    <rect id="Rectangle_226" data-name="Rectangle 226" class="cls-48" width="25" height="25" transform="translate(-406.5 -215.107)"/>
    <rect id="Rectangle_227" data-name="Rectangle 227" class="cls-48" width="20" height="20" transform="translate(-299.5 -96.107)"/>
    <rect id="Rectangle_228" data-name="Rectangle 228" class="cls-48" width="20" height="20" transform="translate(-351.5 -163.107)"/>
    <rect id="Rectangle_229" data-name="Rectangle 229" class="cls-48" width="20" height="20" transform="translate(-353.5 -103.107)"/>
    <rect id="Rectangle_230" data-name="Rectangle 230" class="cls-48" width="20" height="20" transform="translate(-342.5 148.893)"/>
    <rect id="Rectangle_231" data-name="Rectangle 231" class="cls-48" width="20" height="20" transform="translate(-312.5 256.893)"/>
    <rect id="Rectangle_232" data-name="Rectangle 232" class="cls-48" width="20" height="20" transform="translate(-342.5 165.893)"/>
    <rect id="Rectangle_233" data-name="Rectangle 233" class="cls-48" width="20" height="20" transform="translate(-316.5 174.893)"/>
    <rect id="Rectangle_234" data-name="Rectangle 234" class="cls-48" width="20" height="20" transform="translate(-348.5 57.893)"/>
    <rect id="Rectangle_235" data-name="Rectangle 235" class="cls-48" width="20" height="20" transform="translate(-294.5 111.893)"/>
    <rect id="Rectangle_236" data-name="Rectangle 236" class="cls-48" width="20" height="20" transform="translate(-363.5 -183.107)"/>
    <rect id="Rectangle_237" data-name="Rectangle 237" class="cls-48" width="20" height="20" transform="translate(-536.5 -168.107)"/>
    <rect id="Rectangle_238" data-name="Rectangle 238" class="cls-48" width="20" height="20" transform="translate(-281.5 220.893)"/>
    <rect id="Rectangle_239" data-name="Rectangle 239" class="cls-48" width="20" height="20" transform="translate(-203 -140.284) rotate(45)"/>
    <rect id="Rectangle_240" data-name="Rectangle 240" class="cls-48" width="20" height="20" transform="translate(-285.5 -164.107)"/>
    <rect id="Rectangle_241" data-name="Rectangle 241" class="cls-48" width="20" height="20" transform="translate(-276.5 -186.107)"/>
    <rect id="Rectangle_242" data-name="Rectangle 242" class="cls-48" width="20" height="20" transform="translate(-274.5 97.893)"/>
    <rect id="Rectangle_243" data-name="Rectangle 243" class="cls-48" width="20" height="20" transform="translate(-310.5 37.893)"/>
    <rect id="Rectangle_244" data-name="Rectangle 244" class="cls-48" width="20" height="20" transform="translate(-337.5 -119.107)"/>
    <rect id="Rectangle_245" data-name="Rectangle 245" class="cls-48" width="20" height="20" transform="translate(-480.5 -153.107)"/>
    <rect id="Rectangle_246" data-name="Rectangle 246" class="cls-48" width="20" height="20" transform="translate(-515.5 -140.107)"/>
    <rect id="Rectangle_247" data-name="Rectangle 247" class="cls-48" width="20" height="20" transform="translate(-294.5 -205.107)"/>
    <rect id="Rectangle_248" data-name="Rectangle 248" class="cls-48" width="20" height="20" transform="translate(-321.5 -193.107)"/>
    <rect id="Rectangle_249" data-name="Rectangle 249" class="cls-48" width="20" height="20" transform="translate(-450.5 -193.107)"/>
    <rect id="Rectangle_250" data-name="Rectangle 250" class="cls-48" width="20" height="20" transform="translate(-381.5 -181.107)"/>
    <rect id="Rectangle_251" data-name="Rectangle 251" class="cls-48" width="20" height="20" transform="translate(-320.5 -116.107)"/>
    <rect id="Rectangle_252" data-name="Rectangle 252" class="cls-48" width="20" height="20" transform="translate(-465.5 -105.107)"/>
    <rect id="Rectangle_253" data-name="Rectangle 253" class="cls-48" width="20" height="20" transform="translate(-535.5 -133.107)"/>
    <rect id="Rectangle_254" data-name="Rectangle 254" class="cls-48" width="20" height="20" transform="translate(-334.5 -33.107)"/>
    <rect id="Rectangle_255" data-name="Rectangle 255" class="cls-48" width="20" height="20" transform="translate(-325.5 72.893)"/>
  </g>
</svg>
